#N canvas 162 299 1258 806 10;
#X obj 931 206 openpanel;
#X obj 931 185 bng 15 250 50 0 empty empty empty 17 7 0 10 -262144
-1 -1;
#X obj 931 248 soundfiler;
#X floatatom 931 269 5 0 0 0 - - -;
#X obj 931 292 s fileSize;
#X text 927 161 loading audio file;
#N canvas 0 22 450 278 (subpatch) 0;
#X array audio_file_1 262144 float 2;
#X coords 0 1 262144 -1 200 140 1 0 0;
#X restore 879 325 graph;
#X obj 851 229 s maxLength;
#X msg 851 208 4410;
#X obj 851 186 loadbang;
#X obj 427 1506 *~;
#X obj 696 410 cos~;
#X obj 696 431 *~ -1;
#X obj 696 452 +~ 1;
#X obj 696 472 /~ 2;
#X obj 695 389 line~;
#X msg 695 342 1;
#X obj 695 365 pack 0 0;
#X obj 345 257 bng 15 250 50 0 empty empty empty 17 7 0 10 -262144
-1 -1;
#X text 346 218 play grain;
#X text -98 167 starting index;
#X text -27 150 read file from position to position;
#X obj -135 252 hsl 128 15 0 1 0 0 empty empty empty -2 -8 0 10 -262144
-1 -1 10490 1;
#X obj 251 195 hsl 128 15 0 1 0 0 empty empty empty -2 -8 0 10 -262144
-1 -1 8800 1;
#X obj 248 365 *;
#X obj 263 344 r maxLength;
#X obj 66 406 *;
#X obj 81 344 r fileSize;
#X obj 81 384 -;
#X obj 96 364 r maxLength;
#X floatatom 66 428 12 0 0 0 - - -;
#X floatatom 248 387 12 0 0 0 - - -;
#X obj 251 516 pack 0 0;
#X obj 430 346 / 44.1;
#X obj 415 195 hsl 128 15 0.5 2 0 0 empty empty empty -2 -8 0 10 -262144
-1 -1 4233 1;
#X msg 543 136 1;
#X obj 430 367 t b f;
#X obj 416 389 *;
#X obj 211 474 +;
#X obj 248 406 t b f;
#X obj 196 495 f;
#X obj 53 490 f;
#X obj 345 276 t b b b;
#X text 537 394 update time;
#X obj 289 558 bng 15 250 50 0 empty empty empty 17 7 0 10 -262144
-1 -1;
#X text 454 171 speed;
#X obj 882 468 hsl 195 15 0 1 0 0 empty empty empty -2 -8 0 10 -262144
-1 -1 0 1;
#X obj 440 243 swap 1;
#X obj 440 265 /;
#X floatatom 440 287 5 0 0 0 - - -;
#X floatatom 439 222 5 0 0 0 - - -;
#X obj 879 487 s startIDX_1;
#X obj -143 85 r startIDX_1;
#X obj 50 337 bng 15 250 50 0 empty empty empty 17 7 0 10 -262144 -1
-1;
#X obj 196 298 bng 15 250 50 0 empty empty empty 17 7 0 10 -262144
-1 -1;
#X text 673 316 apply volume envelope;
#X text 529 409 in volume envelope;
#X obj 738 299 bng 15 250 50 0 empty empty empty 17 7 0 10 -262144
-1 -1;
#X obj 861 596 metro 100;
#X obj 861 577 tgl 15 0 empty empty empty 17 7 0 10 -262144 -1 -1 0
1;
#X obj 345 236 r playBang;
#X obj 967 565 loadbang;
#X obj 776 596 loadbang;
#X obj 709 674 s speed;
#X obj 325 81 r speed;
#X obj 861 647 s playBang;
#X obj 416 412 t b f;
#X obj 399 439 min;
#X msg 743 631 0.1;
#X msg 778 631 18;
#X msg 934 600 20;
#X msg 969 600 150;
#X obj 688 560 loadbang;
#X obj 621 638 s length;
#X msg 655 595 0.01;
#X msg 690 595 1;
#X obj 814 435 r start;
#X obj 1065 584 loadbang;
#X msg 1067 619 1;
#X obj 998 662 s start;
#X msg 1032 619 0;
#X text 300 176 length;
#N canvas 737 142 450 300 minNrange 0;
#X obj 181 117 random 1000;
#X obj 181 138 / 1000;
#X floatatom 181 220 5 0 0 0 - - -;
#X obj 181 93 inlet;
#X text 180 72 bang;
#X obj 181 162 * 1;
#X text 204 163 range;
#X obj 181 188 + 0;
#X obj 281 95 inlet;
#X obj 332 95 inlet;
#X text 330 75 range;
#X obj 181 244 outlet;
#X text 287 75 min;
#X text 207 191 min;
#X connect 0 0 1 0;
#X connect 1 0 5 0;
#X connect 2 0 11 0;
#X connect 3 0 0 0;
#X connect 5 0 7 0;
#X connect 7 0 2 0;
#X connect 8 0 7 1;
#X connect 9 0 5 1;
#X restore 621 617 pd minNrange;
#N canvas 737 142 450 300 minNrange 0;
#X obj 181 117 random 1000;
#X obj 181 138 / 1000;
#X floatatom 181 220 5 0 0 0 - - -;
#X obj 181 93 inlet;
#X text 180 72 bang;
#X obj 181 162 * 1;
#X text 204 163 range;
#X obj 181 188 + 0;
#X obj 281 95 inlet;
#X obj 332 95 inlet;
#X text 330 75 range;
#X obj 181 244 outlet;
#X text 283 74 min;
#X text 207 191 min;
#X connect 0 0 1 0;
#X connect 1 0 5 0;
#X connect 2 0 11 0;
#X connect 3 0 0 0;
#X connect 5 0 7 0;
#X connect 7 0 2 0;
#X connect 8 0 7 1;
#X connect 9 0 5 1;
#X restore 709 653 pd minNrange;
#N canvas 737 142 450 300 minNrange 0;
#X obj 181 117 random 1000;
#X obj 181 138 / 1000;
#X floatatom 181 220 5 0 0 0 - - -;
#X obj 181 93 inlet;
#X text 180 72 bang;
#X obj 181 162 * 1;
#X text 204 163 range;
#X obj 181 188 + 0;
#X obj 281 95 inlet;
#X obj 332 95 inlet;
#X text 330 75 range;
#X obj 181 244 outlet;
#X text 283 74 min;
#X text 207 191 min;
#X connect 0 0 1 0;
#X connect 1 0 5 0;
#X connect 2 0 11 0;
#X connect 3 0 0 0;
#X connect 5 0 7 0;
#X connect 7 0 2 0;
#X connect 8 0 7 1;
#X connect 9 0 5 1;
#X restore 900 622 pd minNrange;
#N canvas 737 142 450 300 minNrange 0;
#X obj 181 117 random 1000;
#X obj 181 138 / 1000;
#X floatatom 181 220 5 0 0 0 - - -;
#X obj 181 93 inlet;
#X text 180 72 bang;
#X obj 181 162 * 1;
#X text 204 163 range;
#X obj 181 188 + 0;
#X obj 281 95 inlet;
#X obj 332 95 inlet;
#X text 330 75 range;
#X obj 181 244 outlet;
#X text 283 74 min;
#X text 207 191 min;
#X connect 0 0 1 0;
#X connect 1 0 5 0;
#X connect 2 0 11 0;
#X connect 3 0 0 0;
#X connect 5 0 7 0;
#X connect 7 0 2 0;
#X connect 8 0 7 1;
#X connect 9 0 5 1;
#X restore 998 641 pd minNrange;
#X obj 667 216 line~;
#X obj 665 166 t b b;
#X msg 698 195 0;
#X obj 738 170 r fileSize;
#X obj 640 167 bng 15 250 50 0 empty empty empty 17 7 0 10 -262144
-1 -1;
#X obj 641 195 pack 0 0;
#X obj 614 196 f;
#X obj 738 193 / 44.1;
#X text 627 144 bang to listen to audio file;
#X msg 918 573 1000;
#X obj 522 1622 freeverb~;
#X msg 610 1562 damping 0.2;
#X msg 494 148 0.4;
#X msg 546 1569 dry 1;
#X msg 545 1540 roomsize 0.01;
#X obj -177 -104 inlet;
#X text -103 -104 unpack Likelihood \, index \, speed / acceleration
\, scaling?;
#X obj -104 -12 s startIDX_1;
#X floatatom -12 -35 5 0 0 0 - - -;
#X obj 39 -51 s speed;
#X obj 1221 201 openpanel;
#X obj 1221 180 bng 15 250 50 0 empty empty empty 17 7 0 10 -262144
-1 -1;
#X obj 1221 243 soundfiler;
#X floatatom 1221 264 5 0 0 0 - - -;
#X obj 1221 287 s fileSize;
#X text 1217 156 loading audio file;
#N canvas 0 22 450 278 (subpatch) 0;
#X array audio_file_2 262144 float 2;
#X coords 0 1 262144 -1 200 140 1 0 0;
#X restore 1174 336 graph;
#X obj 1177 479 hsl 195 15 0 1 0 0 empty empty empty -2 -8 0 10 -262144
-1 -1 0 1;
#X obj 1109 446 r start;
#X obj -214 30 s Likelihoods;
#X obj -252 476 r Likelihoods;
#X obj -182 -69 unpack f f f f f f f;
#X obj -191 -2 pack f f f f;
#X obj -241 540 likelihood_comparison;
#X msg 1221 222 read -resize \$1 audio_file_2;
#X obj -187 853 == 1;
#X obj 29 855 == 2;
#X obj 116 857 == 3;
#X obj 356 854 == 4;
#X obj -67 1066 tabread~ audio_file_2;
#X obj 268 1228 tabread~ audio_file_4;
#X obj 83 1148 tabread~ audio_file_3;
#X obj -220 985 tabread~ audio_file_1;
#X obj -220 881 spigot;
#X obj -4 883 spigot;
#X obj 83 885 spigot;
#X obj 323 882 spigot;
#X obj -220 958 line~;
#X obj -67 1033 line~;
#X obj 83 1114 line~;
#X obj 268 1193 line~;
#X obj 1938 798 space;
#X obj 1555 208 openpanel;
#X obj 1555 187 bng 15 250 50 0 empty empty empty 17 7 0 10 -262144
-1 -1;
#X obj 1555 250 soundfiler;
#X floatatom 1555 271 5 0 0 0 - - -;
#X obj 1555 294 s fileSize;
#X text 1551 163 loading audio file;
#N canvas 0 22 450 278 (subpatch) 0;
#X array audio_file_3 1.85334e+07 float 2;
#X coords 0 1 1.85334e+07 -1 200 140 1 0 0;
#X restore 1508 343 graph;
#X obj 1511 486 hsl 195 15 0 1 0 0 empty empty empty -2 -8 0 10 -262144
-1 -1 0 1;
#X obj 1443 453 r start;
#X msg 1555 229 read -resize \$1 audio_file_3;
#X obj 1846 203 openpanel;
#X obj 1846 182 bng 15 250 50 0 empty empty empty 17 7 0 10 -262144
-1 -1;
#X obj 1846 245 soundfiler;
#X floatatom 1846 266 5 0 0 0 - - -;
#X obj 1846 289 s fileSize;
#X text 1842 158 loading audio file;
#N canvas 0 22 450 278 (subpatch) 0;
#X array audio_file_4 6.192e+06 float 2;
#X coords 0 1 6.192e+06 -1 200 140 1 0 0;
#X restore 1799 338 graph;
#X obj 1802 481 hsl 195 15 0 1 0 0 empty empty empty -2 -8 0 10 -262144
-1 -1 0 1;
#X obj 1734 448 r start;
#X msg 1846 224 read -resize \$1 audio_file_4;
#X obj 1174 498 s startIDX_1;
#X msg 931 227 read -resize \$1 audio_file_1;
#X obj -159 882 spigot;
#X obj -128 853 == 1;
#X obj -264 660 space;
#X obj -34 855 == 2;
#X obj -67 883 spigot;
#X obj 191 858 == 3;
#X obj 158 886 spigot;
#X obj 301 855 == 4;
#X obj 268 883 spigot;
#X obj 1508 505 s startIDX_1;
#X obj 1799 500 s startIDX_1;
#X msg -267 558 1;
#X obj 667 237 tabread~ audio_file_1;
#X text 799 -35 I labben har OSC data varierat mellan -1300 < x < 1300
1 < y < 800 ? -800 < z < 800? Fast det säger ju inget om vad OSC spottar
ut för noggrannhet på datan.;
#X obj 488 595 line~;
#X floatatom 443 508 5 0 0 0 - - -;
#X obj 495 632 env~;
#X floatatom 498 677 5 0 0 0 - - -;
#X msg 487 540 1 0.5;
#X msg 547 540 0 0.5;
#X obj 624 449 env~;
#X floatatom 627 476 5 0 0 0 - - -;
#X msg 738 343 0;
#X floatatom 87 534 12 0 0 0 - - -;
#X obj -473 341 sapce;
#X obj 815 380 t b b;
#X obj 622 331 t b b;
#X msg 635 363 200;
#X msg 98 309 1;
#X obj -399 -21 tgl 15 0 empty empty empty 17 7 0 10 -262144 -1 -1
0 1;
#X msg -395 13 \; pd dsp \$1;
#X text 547 60 INPUT SCALING;
#X text 49 65 INPUT ALIGNMENT;
#X text 756 25 Om inte scaling finns så som vi hoppas på \, spela
in flera gester i olika storlekar. Varje storlek blir då en ny gest.
Likelihooden för en viss gest bestämmer playback speeden. (få ha
en line emellan för att smootha övergångar lite);
#X obj 326 -53 s mostLikelyGesture;
#X obj 362 -22 s alignments;
#X obj 326 -122 route /moving;
#X obj 458 -54 s X;
#X obj 474 -25 s Y;
#X obj 326 -92 unpack f f f f f f f f f f f f;
#X obj 537 -146 route /nothing;
#X obj 355 -156 dumpOSC 8888;
#X obj 652 -122 ska sätta volumen till 0 om nothing ger nolla;
#X obj 562 -113 sel 0;
#X obj 571 -82 s muteBang;
#X obj 51 87 r alignments;
#X obj 413 23 r mostLikelyGesture;
#X msg 476 1427 0;
#X obj 495 1379 r muteBang;
#X obj 413 56 sel 0;
#X obj 459 56 sel 1;
#X obj 511 56 sel 2;
#X obj 430 139 line;
#X msg 409 96 0.7 100;
#X msg 461 92 1 100;
#X obj 666 1689 dac~ 1 2 3 4 5 6 7 8;
#X obj 710 1272 vsl 15 128 0 1 0 0 empty empty Volume_out 0 -9 0 10
-262144 -1 -1 400 1;
#X floatatom 732 1434 5 0 0 0 - - -;
#X obj 407 1562 *~;
#X obj 564 1489 line~ 0 100;
#X obj 656 269 s~ fullFile;
#X obj 107 1577 r~ fullFile;
#X text 186 31 KAN PROVA SKIPPA DE TVÅ HORISONTELLA SLIDSEN FÖR mindre
hack?;
#X obj 124 1657 *~;
#X obj 265 1468 vsl 15 128 0 1 0 0 empty empty Volume_out 0 -9 0 10
-262144 -1 -1 2600 1;
#X floatatom 308 1616 5 0 0 0 - - -;
#X obj 182 1627 line~ 0 100;
#X msg 511 91 1.4 100;
#X obj 250 -111 print;
#X obj 141 10 print;
#X obj 142 -13 r scaling1;
#X obj 216 11 print;
#X obj 218 -38 s scaling2;
#X obj 217 -12 r scaling2;
#X obj 321 115 r scaling2;
#X obj 216 138 expr 2-$f1;
#X obj 248 175 r length;
#X text 193 97 REVERSE POLARITY;
#X obj 143 -39 s scaling1;
#X obj 584 -46 s dyn1;
#X text 718 -71 få hastighet att ändra volym;
#X obj 650 -46 s dyn2;
#X obj 586 -17 r dyn1;
#X obj 653 -20 r dyn2;
#X obj 651 11 print;
#X obj 586 9 print;
#X obj 799 1380 r dyn2;
#X obj 799 1455 *;
#X obj 799 1490 print;
#X obj 826 1416 expr 1/$f1;
#X text 808 1338 För hastighetsberoende volym!;
#X text 813 1471 Denna output ska gå till line;
#X obj 604 1125 r dyn2;
#X obj 600 1300 lop~;
#X text 620 1207 Samma hastighet som originalet ger cutoff freq på
1000 Hz;
#X obj 600 1241 * 2500;
#X obj 643 1169 expr 1/$f1;
#X msg 376 1815 stop;
#X msg 331 1815 start;
#X obj 421 1901 writesf~ 2;
#X obj -27 1895 noise~;
#X obj -23 1955 dac~;
#X obj 50 1902 *~;
#X obj 175 1721 vsl 15 128 0 0.25 0 0 empty empty Volume_out 0 -9 0
10 -262144 -1 -1 0 1;
#X floatatom 218 1869 5 0 0 0 - - -;
#X obj 92 1880 line~ 0 100;
#X obj 72 1962 writesf~;
#X msg 154 1932 start;
#X msg 174 1974 stop;
#X msg 46 1798 open brus.wav;
#X msg 540 1788 open inspelning.wav;
#X text -139 271 Position in soundfile \, based on the input 'alignment'.
;
#X msg 629 1596 wet 1;
#X obj 382 1727 freeverb~;
#X text 817 1440 Koppla in volume_out här;
#X connect 0 0 159 0;
#X connect 1 0 0 0;
#X connect 2 0 3 0;
#X connect 3 0 4 0;
#X connect 8 0 7 0;
#X connect 9 0 8 0;
#X connect 10 0 273 0;
#X connect 10 0 253 0;
#X connect 11 0 12 0;
#X connect 12 0 13 0;
#X connect 13 0 14 0;
#X connect 14 0 10 1;
#X connect 15 0 11 0;
#X connect 15 0 180 0;
#X connect 16 0 17 0;
#X connect 17 0 15 0;
#X connect 18 0 42 0;
#X connect 23 0 24 0;
#X connect 24 0 31 0;
#X connect 25 0 24 1;
#X connect 26 0 30 0;
#X connect 27 0 28 0;
#X connect 28 0 26 1;
#X connect 29 0 28 1;
#X connect 30 0 38 0;
#X connect 30 0 41 1;
#X connect 31 0 33 0;
#X connect 31 0 39 0;
#X connect 32 0 44 0;
#X connect 32 0 160 0;
#X connect 32 0 130 0;
#X connect 32 0 166 0;
#X connect 32 0 132 0;
#X connect 33 0 36 0;
#X connect 34 0 50 0;
#X connect 35 0 34 0;
#X connect 36 0 37 0;
#X connect 36 1 37 1;
#X connect 37 0 66 0;
#X connect 38 0 40 1;
#X connect 39 0 38 0;
#X connect 39 1 38 1;
#X connect 40 0 32 0;
#X connect 41 0 129 0;
#X connect 41 0 164 0;
#X connect 41 0 131 0;
#X connect 41 0 168 0;
#X connect 41 0 183 0;
#X connect 42 0 54 0;
#X connect 42 1 53 0;
#X connect 42 2 57 0;
#X connect 44 0 186 0;
#X connect 46 0 51 0;
#X connect 47 0 48 0;
#X connect 47 1 48 1;
#X connect 48 0 49 0;
#X connect 49 0 37 0;
#X connect 50 0 47 0;
#X connect 52 0 22 0;
#X connect 53 0 41 0;
#X connect 54 0 40 0;
#X connect 57 0 185 0;
#X connect 58 0 84 0;
#X connect 58 0 65 0;
#X connect 58 0 83 0;
#X connect 58 0 82 0;
#X connect 58 0 85 0;
#X connect 59 0 58 0;
#X connect 60 0 18 0;
#X connect 61 0 70 0;
#X connect 61 0 71 0;
#X connect 61 0 95 0;
#X connect 62 0 68 0;
#X connect 62 0 69 0;
#X connect 66 0 67 0;
#X connect 66 1 67 1;
#X connect 67 0 32 1;
#X connect 67 0 175 0;
#X connect 67 0 187 0;
#X connect 68 0 83 1;
#X connect 69 0 83 2;
#X connect 70 0 84 1;
#X connect 71 0 84 2;
#X connect 72 0 74 0;
#X connect 72 0 75 0;
#X connect 74 0 82 1;
#X connect 75 0 82 2;
#X connect 76 0 46 0;
#X connect 77 0 80 0;
#X connect 77 0 78 0;
#X connect 78 0 85 2;
#X connect 80 0 85 1;
#X connect 82 0 73 0;
#X connect 83 0 63 0;
#X connect 84 0 58 1;
#X connect 84 0 67 0;
#X connect 85 0 79 0;
#X connect 86 0 172 0;
#X connect 87 0 92 0;
#X connect 87 1 88 0;
#X connect 88 0 86 0;
#X connect 89 0 92 1;
#X connect 89 0 93 0;
#X connect 90 0 87 0;
#X connect 91 0 86 0;
#X connect 92 0 91 0;
#X connect 93 0 91 1;
#X connect 95 0 67 0;
#X connect 96 0 215 0;
#X connect 96 0 215 2;
#X connect 96 0 215 4;
#X connect 96 0 215 6;
#X connect 96 1 215 7;
#X connect 96 1 215 5;
#X connect 96 1 215 3;
#X connect 96 1 215 1;
#X connect 97 0 96 0;
#X connect 99 0 96 0;
#X connect 100 0 96 0;
#X connect 101 0 117 0;
#X connect 106 0 120 0;
#X connect 107 0 106 0;
#X connect 108 0 109 0;
#X connect 109 0 110 0;
#X connect 113 0 158 0;
#X connect 114 0 113 0;
#X connect 116 0 119 0;
#X connect 117 0 118 0;
#X connect 117 1 118 1;
#X connect 117 2 118 2;
#X connect 117 3 118 3;
#X connect 117 4 103 0;
#X connect 118 0 115 0;
#X connect 119 0 121 0;
#X connect 119 0 122 0;
#X connect 119 0 123 0;
#X connect 119 0 124 0;
#X connect 119 0 161 0;
#X connect 119 0 163 0;
#X connect 119 0 165 0;
#X connect 119 0 167 0;
#X connect 120 0 108 0;
#X connect 121 0 129 1;
#X connect 122 0 130 1;
#X connect 123 0 131 1;
#X connect 124 0 132 1;
#X connect 125 0 10 0;
#X connect 126 0 10 0;
#X connect 127 0 10 0;
#X connect 128 0 10 0;
#X connect 129 0 133 0;
#X connect 130 0 134 0;
#X connect 131 0 135 0;
#X connect 132 0 136 0;
#X connect 133 0 128 0;
#X connect 134 0 125 0;
#X connect 135 0 127 0;
#X connect 136 0 126 0;
#X connect 138 0 147 0;
#X connect 139 0 138 0;
#X connect 140 0 141 0;
#X connect 141 0 142 0;
#X connect 145 0 169 0;
#X connect 146 0 145 0;
#X connect 147 0 140 0;
#X connect 148 0 157 0;
#X connect 149 0 148 0;
#X connect 150 0 151 0;
#X connect 151 0 152 0;
#X connect 155 0 170 0;
#X connect 156 0 155 0;
#X connect 157 0 150 0;
#X connect 159 0 2 0;
#X connect 160 0 133 0;
#X connect 161 0 160 1;
#X connect 163 0 164 1;
#X connect 164 0 134 0;
#X connect 165 0 166 1;
#X connect 166 0 135 0;
#X connect 167 0 168 1;
#X connect 168 0 136 0;
#X connect 171 0 161 0;
#X connect 171 0 121 0;
#X connect 171 0 163 0;
#X connect 171 0 122 0;
#X connect 171 0 123 0;
#X connect 171 0 165 0;
#X connect 171 0 167 0;
#X connect 171 0 124 0;
#X connect 172 0 220 0;
#X connect 174 0 176 0;
#X connect 176 0 177 0;
#X connect 178 0 174 0;
#X connect 179 0 174 0;
#X connect 180 0 181 0;
#X connect 182 0 15 0;
#X connect 185 0 179 0;
#X connect 185 1 182 0;
#X connect 186 0 178 0;
#X connect 186 1 16 0;
#X connect 187 0 17 1;
#X connect 189 0 190 0;
#X connect 196 0 199 0;
#X connect 199 0 194 0;
#X connect 199 2 195 0;
#X connect 199 2 239 0;
#X connect 199 3 241 0;
#X connect 199 4 238 0;
#X connect 199 5 232 0;
#X connect 199 8 197 0;
#X connect 199 9 198 0;
#X connect 200 0 203 0;
#X connect 201 0 196 0;
#X connect 201 0 200 0;
#X connect 203 0 204 0;
#X connect 205 0 26 0;
#X connect 205 0 18 0;
#X connect 205 0 22 0;
#X connect 206 0 209 0;
#X connect 206 0 210 0;
#X connect 206 0 211 0;
#X connect 207 0 10 1;
#X connect 208 0 207 0;
#X connect 209 0 213 0;
#X connect 210 0 214 0;
#X connect 211 0 227 0;
#X connect 213 0 212 0;
#X connect 214 0 212 0;
#X connect 216 0 217 0;
#X connect 216 0 247 1;
#X connect 218 0 96 0;
#X connect 219 0 218 1;
#X connect 221 0 223 0;
#X connect 223 0 218 0;
#X connect 224 0 225 0;
#X connect 224 0 226 0;
#X connect 226 0 223 1;
#X connect 227 0 212 0;
#X connect 234 0 235 0;
#X connect 236 0 23 0;
#X connect 246 0 249 0;
#X connect 247 0 219 0;
#X connect 249 0 247 0;
#X connect 252 0 255 0;
#X connect 253 0 218 0;
#X connect 255 0 253 1;
#X connect 257 0 259 0;
#X connect 258 0 259 0;
#X connect 260 0 262 0;
#X connect 262 0 266 0;
#X connect 263 0 264 0;
#X connect 263 0 265 0;
#X connect 265 0 262 1;
#X connect 267 0 266 0;
#X connect 268 0 266 0;
#X connect 269 0 266 0;
#X connect 270 0 259 0;
#X connect 272 0 96 0;
#X connect 273 0 259 0;
#X connect 273 1 259 1;
