#N canvas 170 23 1045 798 10;
#X text 95 20 Compare likelihoods to choose sound to play back;
#X obj 93 161 inlet;
#X obj 93 203 unpack f f f f;
#X text 74 46 Det räcker med ett värde ut som säger ifall den ska
spelas elelr ej;
#X text 172 90 When right > left \, output it and number "2";
#X text 181 113 When left < right \, output it and number "1";
#X obj 512 291 >;
#X floatatom 512 165 5 0 0 0 - - -;
#X floatatom 555 181 5 0 0 0 - - -;
#X obj 496 445 sel 1;
#X msg 497 481 1;
#X obj 551 445 sel 0;
#X msg 551 479 2;
#X obj 512 238 f;
#X obj 523 214 bng 15 250 50 0 empty empty empty 17 7 0 10 -262144
-1 -1;
#X obj 559 552 spigot 1;
#X obj 551 511 == 2;
#X floatatom 559 625 5 0 0 0 - - -;
#X obj 455 572 spigot 1;
#X obj 494 548 == 1;
#X floatatom 455 622 5 0 0 0 - - -;
#X text 738 101 The larger value is being put through;
#X obj 516 671 * 1;
#X floatatom 647 717 5 0 0 0 - - -;
#X floatatom 519 714 5 0 0 0 - - -;
#X text 560 683 Now \, compare these 2;
#X obj 595 741 bng 15 250 50 0 empty empty empty 17 7 0 10 -262144
-1 -1;
#X obj 585 763 f;
#X obj 771 1501 space;
#X obj 585 824 >;
#X obj 635 881 sel 0;
#X msg 635 916 3;
#X obj 635 955 == 3;
#X obj 590 994 spigot 3;
#X obj 584 879 sel 1;
#X msg 584 913 0;
#X floatatom 604 1041 5 0 0 0 - - -;
#X obj 515 987 spigot;
#X obj 547 945 == 0;
#X text 682 920 3 important;
#X floatatom 518 1038 5 0 0 0 - - -;
#X obj 566 1068 * 1;
#X floatatom 676 1100 5 0 0 0 - - -;
#X obj 624 1124 bng 15 250 50 0 empty empty empty 17 7 0 10 -262144
-1 -1;
#X obj 614 1146 f;
#X obj 614 1207 >;
#X obj 664 1264 sel 0;
#X obj 664 1338 == 3;
#X obj 619 1377 spigot 3;
#X obj 613 1262 sel 1;
#X msg 613 1296 0;
#X floatatom 633 1424 5 0 0 0 - - -;
#X obj 544 1370 spigot;
#X obj 576 1328 == 0;
#X text 711 1303 3 important;
#X floatatom 547 1421 5 0 0 0 - - -;
#X obj 595 1451 * 1;
#X floatatom 560 1108 5 0 0 0 - - -;
#X text 731 124 INPUT Likelihoods 1 AND 2;
#X msg 664 1299 4;
#X floatatom 597 1484 5 0 0 0 - - -;
#X obj 149 745 f;
#X floatatom 152 800 5 0 0 0 - - -;
#X text 622 494 1 \, 2 \, 3 \, 4 important;
#X text 651 186 Inputs will always be coming in \, updating every value
;
#X text 10 701 OUTPUT the gesture number that is most likely;
#X text 609 463 What is important is which number of 1 \, 2 \, 3 \,
4 that was banged last;
#X obj 511 110 r gest1;
#X obj 561 129 r gest2;
#X obj 685 658 r gest3;
#X obj 685 1063 r gest4;
#X obj 93 264 s gest1;
#X obj 120 313 s gest2;
#X obj 147 364 s gest3;
#X obj 174 399 s gest4;
#X text 11 859 If this doesn't work \, store every value in an array
an retreive the previous. Let an index increment for each new number
banged into the array.;
#X obj 71 798 outlet;
#X obj 150 486 ==;
#X obj 132 522 sel 1;
#X msg 71 541 1;
#X obj 130 824 print;
#X text 38 446 Extra check \, something went wrong when nuone number
went back etc etc what;
#X text 41 427 IF NECESSARY \, ADD THIS;
#X connect 1 0 2 0;
#X connect 2 0 71 0;
#X connect 2 1 72 0;
#X connect 2 2 73 0;
#X connect 2 3 74 0;
#X connect 6 0 11 0;
#X connect 6 0 9 0;
#X connect 7 0 13 0;
#X connect 7 0 18 0;
#X connect 8 0 6 1;
#X connect 8 0 14 0;
#X connect 8 0 15 0;
#X connect 9 0 10 0;
#X connect 10 0 16 0;
#X connect 10 0 19 0;
#X connect 10 0 61 0;
#X connect 11 0 12 0;
#X connect 12 0 16 0;
#X connect 12 0 19 0;
#X connect 12 0 61 0;
#X connect 13 0 6 0;
#X connect 14 0 13 0;
#X connect 15 0 17 0;
#X connect 16 0 15 1;
#X connect 17 0 22 0;
#X connect 18 0 20 0;
#X connect 19 0 18 1;
#X connect 20 0 22 0;
#X connect 22 0 24 0;
#X connect 23 0 26 0;
#X connect 23 0 29 1;
#X connect 23 0 33 0;
#X connect 24 0 27 0;
#X connect 26 0 27 0;
#X connect 27 0 29 0;
#X connect 27 0 37 0;
#X connect 29 0 30 0;
#X connect 29 0 34 0;
#X connect 30 0 31 0;
#X connect 31 0 32 0;
#X connect 31 0 38 0;
#X connect 31 0 61 0;
#X connect 32 0 33 1;
#X connect 33 0 36 0;
#X connect 34 0 35 0;
#X connect 35 0 32 0;
#X connect 35 0 38 0;
#X connect 36 0 41 0;
#X connect 37 0 40 0;
#X connect 38 0 37 1;
#X connect 40 0 41 0;
#X connect 41 0 57 0;
#X connect 42 0 43 0;
#X connect 42 0 45 1;
#X connect 42 0 48 0;
#X connect 43 0 44 0;
#X connect 44 0 45 0;
#X connect 44 0 52 0;
#X connect 45 0 46 0;
#X connect 45 0 49 0;
#X connect 46 0 59 0;
#X connect 47 0 48 1;
#X connect 48 0 51 0;
#X connect 49 0 50 0;
#X connect 50 0 47 0;
#X connect 50 0 53 0;
#X connect 51 0 56 0;
#X connect 52 0 55 0;
#X connect 53 0 52 1;
#X connect 55 0 56 0;
#X connect 56 0 60 0;
#X connect 57 0 44 0;
#X connect 59 0 47 0;
#X connect 59 0 53 0;
#X connect 59 0 61 0;
#X connect 61 0 62 0;
#X connect 61 0 76 0;
#X connect 61 0 80 0;
#X connect 67 0 7 0;
#X connect 68 0 8 0;
#X connect 69 0 23 0;
#X connect 70 0 42 0;
#X connect 77 0 78 0;
#X connect 78 0 79 0;
#X connect 79 0 61 0;
