#N canvas 22 23 924 676 10;
#X obj 248 452 GRAIN_experiment;
#X obj 111 36 dumpOSC 9999;
#X obj 110 77 route /Rigidbody;
#X obj 248 510 dac~;
#X obj 116 128 unpack f f f f;
#X obj 116 178 print;
#X obj 259 40 t b b b b;
#X obj 266 12 bng 15 250 50 0 empty empty empty 17 7 0 10 -262144 -1
-1;
#X msg 248 84 1;
#X msg 294 199 1;
#X msg 317 220 1;
#X obj 283 126 hsl 128 15 0 1 0 0 empty empty Index -2 -8 0 10 -262144
-1 -1 6300 1;
#X obj 271 178 mavg;
#X floatatom 290 151 5 0 0 0 - - -;
#X obj 491 377 pack f f f f;
#X msg 648 328 0.6;
#X obj 569 247 t b b b b;
#X text 567 219 Likelihood test;
#X obj 545 195 bng 15 250 50 0 empty empty empty 17 7 0 10 -262144
-1 -1;
#X obj 491 415 s likelihood;
#X obj 248 254 r likelihood;
#X obj 248 319 list;
#X obj 248 363 list;
#X obj 248 411 list;
#X text 583 168 Likelihood är hårdprogrammerat att kunna ta (upp
till?) in 4 gester;
#X msg 587 324 0.4;
#X msg 537 320 0.8;
#X msg 491 321 0.3;
#X text 224 579 inputen är 1 likelihood \, 2 index \, 3 \, 4;
#X connect 0 0 3 0;
#X connect 0 0 3 1;
#X connect 1 0 2 0;
#X connect 2 0 4 0;
#X connect 4 1 5 0;
#X connect 6 0 8 0;
#X connect 6 2 9 0;
#X connect 6 3 10 0;
#X connect 7 0 6 0;
#X connect 7 0 18 0;
#X connect 9 0 22 1;
#X connect 10 0 23 1;
#X connect 11 0 7 0;
#X connect 11 0 12 0;
#X connect 12 0 21 1;
#X connect 13 0 12 1;
#X connect 14 0 19 0;
#X connect 15 0 14 3;
#X connect 16 0 27 0;
#X connect 16 1 26 0;
#X connect 16 2 25 0;
#X connect 16 3 15 0;
#X connect 18 0 16 0;
#X connect 20 0 21 0;
#X connect 21 0 22 0;
#X connect 22 0 23 0;
#X connect 23 0 0 0;
#X connect 25 0 14 2;
#X connect 26 0 14 1;
#X connect 27 0 14 0;
