#N canvas 179 23 1150 762 10;
#X obj 380 146 tgl 15 0 empty empty empty 17 7 0 10 -262144 -1 -1 1
1;
#X msg 380 173 \; pd dsp \$1;
#X obj 519 144 bng 15 250 50 0 empty empty empty 17 7 0 10 -262144
-1 -1;
#X obj 519 170 openpanel;
#X obj 519 225 soundfiler;
#X floatatom 541 253 10 0 0 0 - - -;
#X obj 541 278 s sampleSize;
#X obj 519 306 expr 44100 / $f1;
#X floatatom 543 333 10 0 0 0 - - -;
#X obj 519 415 phasor~;
#N canvas 0 22 450 278 (subpatch) 0;
#X array sound_1 80124 float 2;
#X coords 0 1 80124 -1 200 140 1 0 0;
#X restore 854 154 graph;
#X obj 519 458 *~;
#X obj 544 438 r sampleSize;
#X obj 519 625 tabread4~ sound_1;
#X obj 181 705 *~;
#X obj 181 745 dac~;
#X obj 658 641 vsl 50 40 0 1 0 0 empty empty empty 0 -9 0 10 -262144
-1 -1 400 1;
#X floatatom 644 703 5 0 0 0 - - -;
#X obj 715 444 tgl 15 0 empty empty empty 17 7 0 10 -262144 -1 -1 1
1;
#X obj 715 468 metro 50;
#X obj 715 497 snapshot~;
#X floatatom 736 521 10 0 0 0 - - -;
#X obj 715 574 /;
#X obj 739 551 r sampleSize;
#X floatatom 724 605 10 0 0 0 - - -;
#X obj 857 300 hsl 199 15 0 1 0 0 empty empty empty -2 -8 0 10 -262144
-1 -1 0 1;
#X text 742 159 Playback speed;
#X obj 689 228 hsl 128 15 -1.10079 1.10079 0 0 empty empty 0 0 0 0
4 -1 -1 -1 5300 0;
#X floatatom 695 251 5 0 0 0 - - -;
#X msg 647 341 0;
#X msg 681 340 0.5;
#X msg 449 322 0;
#X obj 409 267 t b b;
#X msg 519 197 read -resize \$1 sound_1;
#X obj 409 241 bng 15 250 50 0 empty empty empty 17 7 0 10 -262144
-1 -1;
#X obj 648 303 +;
#X obj 542 353 s playbackSpeed;
#X obj 682 136 r playbackSpeed;
#X obj 686 170 f;
#X obj 654 148 bng 15 250 50 0 empty empty empty 17 7 0 10 -262144
-1 -1;
#X obj 743 280 r playbackSpeed;
#X obj 740 306 * 2;
#X obj 753 369 print;
#X obj 34 293 hsl 128 15 0 80124 0 0 empty empty empty -2 -8 0 10 -262144
-1 -1 6100 1;
#X floatatom 75 337 12 0 0 0 - - -;
#X floatatom 211 631 5 0 0 0 - - -;
#X obj 214 600 env~;
#X obj 47 465 line~;
#X obj 47 494 tabread4~ sound_1;
#X text 191 338 Window length;
#X obj 30 366 + 2500;
#X obj 24 403 pack f f;
#X msg 103 380 200;
#X text -180 251 Ljudklippet har 80124 samples. Denna slider går mellan
1 och 80124 Alignment kan styra denna. Hur snabbt Alignment ökar ändrar
pitchen.;
#X text 6 107 Vi har input 0-1. Skala in den så den passar samplelängden.
;
#X obj 36 167 hsl 128 15 0 1 0 0 empty empty empty -2 -8 0 10 -262144
-1 -1 6100 1;
#X obj 70 240 *;
#X obj 102 210 r sampleSize;
#X floatatom 105 269 12 0 0 0 - - -;
#X obj 470 197 bng 15 250 50 0 empty empty empty 17 7 0 10 -262144
-1 -1;
#X connect 0 0 1 0;
#X connect 2 0 3 0;
#X connect 3 0 33 0;
#X connect 4 0 5 0;
#X connect 4 0 7 0;
#X connect 5 0 6 0;
#X connect 7 0 8 0;
#X connect 7 0 9 0;
#X connect 7 0 36 0;
#X connect 9 0 11 0;
#X connect 11 0 13 0;
#X connect 11 0 20 0;
#X connect 12 0 11 1;
#X connect 13 0 14 0;
#X connect 14 0 15 0;
#X connect 14 0 15 1;
#X connect 16 0 14 1;
#X connect 16 0 17 0;
#X connect 18 0 19 0;
#X connect 19 0 20 0;
#X connect 20 0 21 0;
#X connect 20 0 22 0;
#X connect 22 0 24 0;
#X connect 22 0 25 0;
#X connect 23 0 22 1;
#X connect 27 0 28 0;
#X connect 27 0 9 0;
#X connect 29 0 9 1;
#X connect 30 0 9 1;
#X connect 31 0 9 0;
#X connect 32 0 29 0;
#X connect 32 1 31 0;
#X connect 33 0 4 0;
#X connect 34 0 32 0;
#X connect 37 0 38 0;
#X connect 38 0 27 0;
#X connect 39 0 38 0;
#X connect 40 0 41 0;
#X connect 41 0 42 0;
#X connect 43 0 50 0;
#X connect 46 0 45 0;
#X connect 47 0 48 0;
#X connect 48 0 46 0;
#X connect 48 0 14 0;
#X connect 50 0 51 0;
#X connect 51 0 47 0;
#X connect 52 0 51 1;
#X connect 55 0 56 0;
#X connect 56 0 58 0;
#X connect 56 0 43 0;
#X connect 57 0 56 1;
#X connect 59 0 5 0;
