#N canvas 279 23 1235 756 10;
#X obj 838 -20 bng 15 250 50 0 empty empty empty 17 7 0 10 -262144
-1 -1;
#X obj 838 6 openpanel;
#X obj 838 61 soundfiler;
#X floatatom 860 89 10 0 0 0 - - -;
#X obj 838 140 s sampleSize;
#X obj 102 -166 tgl 15 0 empty empty empty 17 7 0 10 -262144 -1 -1
1 1;
#X msg 102 -139 \; pd dsp \$1;
#X msg 838 33 read -resize \$1 soundfile_1;
#N canvas 0 22 450 278 (subpatch) 0;
#X array soundfile_1 26511 float 2;
#X coords 0 1 26511 -1 200 140 1 0 0;
#X restore 1033 -3 graph;
#X obj 1071 921 *~;
#X obj 1086 692 vsl 50 40 0 0.3 0 0 empty empty Volume 0 -9 0 10 -262144
-1 -1 500 1;
#X floatatom 1086 756 5 0 0 0 - - -;
#X obj 106 276 hsl 128 15 0 80124 0 0 empty empty empty -2 -8 0 10
-262144 -1 -1 0 1;
#X obj 103 378 line~;
#X obj 103 342 pack f f;
#X obj 106 157 hsl 128 15 0 1 0 0 empty empty empty -2 -8 0 10 -262144
-1 -1 0 1;
#X obj 103 223 *;
#X obj 135 177 r sampleSize;
#X floatatom 138 252 12 0 0 0 - - -;
#X text 112 127 Alignment input (0-1);
#X text 225 179 Skala om till till ljudfilens storlek;
#X text 230 312 Ändra denna slope time parameter för att göra indexläsningen
olika känslig i snabbhet.;
#X obj 309 463 likelihood_comparison;
#X text 295 529 Får ut 1 \, 2 \, 3 eller 4 beroende på vilken av
de fyra gesterna som har högst likelihood. Detta ska styra vilken
ljudfil som ska spelas upp.;
#X obj 138 733 spigot~;
#X text 293 415 Input av lista med upp till 4 element (kan expandera
den om vi vill ha fler gester);
#X obj 309 497 s mostLikelyGesture;
#X obj 177 674 r mostLikelyGesture;
#X obj 103 408 s~ Alignment;
#X obj 138 639 r~ Alignment;
#X obj 1071 792 r~ out;
#X obj 190 -166 dumpOSC 8888;
#X obj 317 -114 print;
#X obj 840 181 bng 15 250 50 0 empty empty empty 17 7 0 10 -262144
-1 -1;
#X obj 840 207 openpanel;
#X obj 840 262 soundfiler;
#X floatatom 875 291 10 0 0 0 - - -;
#X obj 693 62 r mostLikelyGesture;
#X obj 838 112 f;
#X obj 840 361 s sampleSize;
#X obj 695 280 r mostLikelyGesture;
#X obj 840 330 f;
#N canvas 0 22 450 278 (subpatch) 0;
#X array soundfile_2 50000 float 2;
#X coords 0 1 50000 -1 200 140 1 0 0;
#X restore 1030 227 graph;
#X text 272 258 Ljudklippet 1 har 80124 samples. Denna slider går
mellan 1 och 80124 Alignment kan styra denna. Hur snabbt Alignment
ökar ändrar pitchen.;
#X obj 364 736 spigot~;
#X obj 403 677 r mostLikelyGesture;
#X obj 364 642 r~ Alignment;
#X obj 1398 545 line~;
#X obj 1371 496 bng 15 250 50 0 empty empty empty 17 7 0 10 -262144
-1 -1;
#X obj 1386 588 dac~;
#X text 1358 473 bang to listen to audio file;
#X obj 1398 566 tabread~ soundfile_1;
#X obj 175 225 print;
#X msg 840 234 read \$1 soundfile_2;
#X obj 1425 -20 bng 15 250 50 0 empty empty empty 17 7 0 10 -262144
-1 -1;
#X obj 1425 6 openpanel;
#X obj 1425 61 soundfiler;
#X floatatom 1460 90 10 0 0 0 - - -;
#X obj 1425 160 s sampleSize;
#X obj 1280 79 r mostLikelyGesture;
#X obj 1425 129 f;
#N canvas 0 22 450 278 (subpatch) 0;
#X array soundfile_3 50000 float 2;
#X coords 0 1 50000 -1 200 140 1 0 0;
#X restore 1615 26 graph;
#X msg 1425 33 read \$1 soundfile_3;
#X obj 576 736 spigot~;
#X obj 615 677 r mostLikelyGesture;
#X obj 576 642 r~ Alignment;
#X obj 1424 196 bng 15 250 50 0 empty empty empty 17 7 0 10 -262144
-1 -1;
#X obj 1424 222 openpanel;
#X obj 1424 277 soundfiler;
#X floatatom 1459 306 10 0 0 0 - - -;
#X obj 1424 376 s sampleSize;
#X obj 1279 295 r mostLikelyGesture;
#X obj 1424 345 f;
#N canvas 0 22 450 278 (subpatch) 0;
#X array soundfile_4 50000 float 2;
#X coords 0 1 50000 -1 200 140 1 0 0;
#X restore 1614 242 graph;
#X msg 1424 249 read \$1 soundfile_4;
#X obj 788 742 spigot~;
#X obj 827 683 r mostLikelyGesture;
#X obj 788 648 r~ Alignment;
#X text 272 211 ##### SE TILL ATT DENNA ÄR MAX-SKALAD FÖR ALLA FILER
AUTOMATISKT #######;
#X text 294 -229 Inputs fås i ordningen: /moving LikeliestGesture
likelihoods alignments dynamics1 dynamics2 scalings1 scalings2 rotations
;
#X obj 190 -36 s mostLikelyGesture;
#X obj 226 -5 s alignments;
#X obj 103 94 r alignments;
#X obj 190 -105 route /moving;
#X obj 693 99 sel 0;
#X obj 695 317 sel 1;
#X obj 1280 116 sel 2;
#X obj 1279 332 sel 3;
#X obj 177 706 == 0;
#X obj 403 709 == 1;
#X obj 615 709 == 2;
#X obj 827 715 == 3;
#X msg 279 648 0;
#X msg 505 651 1;
#X msg 717 651 2;
#X msg 929 657 3;
#X msg 257 452 0;
#X msg 214 450 1;
#X msg 254 480 2;
#X msg 214 482 3;
#X msg 261 86 0;
#X text 479 -75 NOLLSTÄLL EFTER SLUTET ÄR NÅDD och MUTA INNAN det
sätts till 0;
#X obj 391 -73 r alignments;
#X obj 391 -38 * 100;
#X obj 391 -7 int;
#X obj 391 58 s resetBang;
#X obj 261 29 r resetBang;
#X obj 1375 731 f;
#X obj 1330 806 line~;
#X obj 1330 665 r resetBang;
#X obj 1330 766 pack f f;
#X obj 102 533 env~;
#X floatatom 109 563 5 0 0 0 - - -;
#X msg 460 -13 99;
#X obj 1330 863 spigot~;
#X obj 1386 832 == 1;
#X obj 448 88 s resetTrueOrFalse;
#X obj 1386 798 r resetTrueOrFalse;
#X obj 1348 1093 space;
#X obj 1337 895 delwrite~;
#X obj 1153 755 f;
#X msg 1330 733 0 50;
#X obj 1330 694 t b b b;
#X obj -37 -51 dumpOSC 9999;
#X obj 116 -61 print;
#X floatatom 25 185 5 0 0 0 - - -;
#X obj 1185 807 r resetBang;
#X obj 371 98 s index;
#X obj 1086 597 r index;
#X obj 985 1031 print;
#X obj 984 1002 env~;
#X obj 1145 808 bng 15 250 50 0 empty empty empty 17 7 0 10 -262144
-1 -1;
#X obj 1086 640 delay 1500;
#X obj 261 58 delay 40;
#X obj 1182 889 line;
#X msg 1185 839 0 10;
#X obj -64 -13 route /RigidBody;
#X obj -83 91 s alignments;
#X obj -73 21 unpack f f f f f f;
#X obj -68 55 / 1300;
#X obj 1071 961 dac~ 1 2 3 4 5 6 7 8;
#X obj 169 201 change;
#X msg 182 319 300;
#X obj -1 82 + 1300;
#X text -55 -76 Själv test;
#X text 294 -181 De tre sista är X Y Z;
#X obj 156 929 lop~;
#X obj 205 760 env~;
#X obj -190 660 hsl 128 15 0 127 0 0 empty empty empty -2 -8 0 10 -262144
-1 -1 0 1;
#X obj -173 842 expr~ $v1 > $v2;
#X floatatom -98 694 5 0 0 0 - - -;
#X obj -96 725 / 100;
#X obj -87 766 osc~;
#X obj -75 803 abs~;
#X obj 136 1138 *~;
#X obj 248 994 vsl 15 128 0 0.5 0 0 empty empty Y 0 -9 0 10 -262144
-1 -1 12700 1;
#X msg 161 1080 0;
#X obj 322 -37 s X;
#X obj 338 -8 s Y;
#X obj -168 604 r X;
#X obj -135 788 r Y;
#X floatatom 236 776 10 0 1 0 - - -;
#X obj -172 568 mtof;
#X obj -173 693 mtof;
#X obj 92 802 mtof;
#X obj -12 758 hsl 128 15 0 127 0 0 empty empty empty -2 -8 0 10 -262144
-1 -1 3600 1;
#X obj 100 632 r X;
#X obj -50 297 hsl 128 15 20 20000 1 0 empty empty empty -2 -8 0 10
-262144 -1 -1 7300 1;
#X floatatom 0 814 5 0 0 0 - - -;
#X floatatom 86 941 5 0 0 0 - - -;
#X obj 100 839 phasor~ 500;
#X obj 284 796 *~ 127;
#X obj 322 888 r Y;
#X obj 137 1162 s~ out;
#X floatatom 257 1148 5 0 0 0 - - -;
#X obj 404 1065 env~;
#X obj 409 1104 print;
#X text 362 945 Gå mellan 0 och 1;
#X obj 292 952 / 1300;
#X obj 284 754 r~ Alignment;
#X obj 284 825 mtof~;
#X floatatom -46 348 10 0 0 0 - - -;
#X obj 384 850 hsl 128 15 20 20000 0 0 empty empty empty -2 -8 0 10
-262144 -1 -1 0 1;
#X obj 516 871 pack f f;
#X floatatom 381 894 10 20 20000 0 - - -;
#X obj 209 948 print;
#X obj 508 934 mavg;
#X floatatom 538 908 5 0 0 0 - - -;
#X floatatom 488 994 10 20 20000 0 - - -;
#X obj 595 980 smooth;
#X obj 416 787 r alignments;
#X obj 414 817 * 1000;
#X floatatom 531 828 5 0 0 0 - - -;
#X obj -8 646 r alignments;
#X obj 149 32 s dynamics1;
#X obj 158 64 s dynamics2;
#X obj 532 769 r dynamics1;
#X obj 561 797 print;
#X obj -24 899 print;
#X obj -7 675 * 8000;
#X obj 528 -8 print;
#X obj 190 -75 unpack f f f f f f f f f f f f;
#X obj 401 -129 route /nothing;
#X text 463 -150 Ingen rörelse;
#X obj 391 25 sel 99;
#X obj 448 25 == 99;
#X obj 571 -102 print nothing;
#X obj 423 -103 s volume;
#X obj 1211 713 r volume;
#X obj 1209 747 sel 0;
#X obj -17 718 print;
#X connect 0 0 1 0;
#X connect 1 0 7 0;
#X connect 2 0 3 0;
#X connect 2 0 38 0;
#X connect 5 0 6 0;
#X connect 7 0 2 0;
#X connect 9 0 140 0;
#X connect 9 0 140 1;
#X connect 9 0 140 2;
#X connect 9 0 140 3;
#X connect 9 0 140 4;
#X connect 9 0 140 5;
#X connect 9 0 140 6;
#X connect 9 0 140 7;
#X connect 10 0 9 1;
#X connect 10 0 11 0;
#X connect 10 0 120 0;
#X connect 13 0 28 0;
#X connect 14 0 13 0;
#X connect 15 0 16 0;
#X connect 15 0 125 0;
#X connect 16 0 18 0;
#X connect 16 0 12 0;
#X connect 17 0 16 1;
#X connect 22 0 26 0;
#X connect 24 1 147 0;
#X connect 27 0 88 0;
#X connect 29 0 24 0;
#X connect 30 0 9 0;
#X connect 31 0 83 0;
#X connect 31 0 202 0;
#X connect 33 0 34 0;
#X connect 34 0 53 0;
#X connect 35 0 36 0;
#X connect 35 0 41 0;
#X connect 37 0 84 0;
#X connect 38 0 4 0;
#X connect 40 0 85 0;
#X connect 41 0 39 0;
#X connect 45 0 89 0;
#X connect 46 0 44 0;
#X connect 47 0 51 0;
#X connect 51 0 49 0;
#X connect 51 0 49 1;
#X connect 53 0 35 0;
#X connect 54 0 55 0;
#X connect 55 0 62 0;
#X connect 56 0 57 0;
#X connect 56 0 60 0;
#X connect 59 0 86 0;
#X connect 60 0 58 0;
#X connect 62 0 56 0;
#X connect 64 0 90 0;
#X connect 65 0 63 0;
#X connect 66 0 67 0;
#X connect 67 0 74 0;
#X connect 68 0 69 0;
#X connect 68 0 72 0;
#X connect 71 0 87 0;
#X connect 72 0 70 0;
#X connect 74 0 68 0;
#X connect 76 0 91 0;
#X connect 77 0 75 0;
#X connect 82 0 15 0;
#X connect 83 0 201 0;
#X connect 84 0 38 0;
#X connect 85 0 41 0;
#X connect 86 0 60 0;
#X connect 87 0 72 0;
#X connect 88 0 24 1;
#X connect 89 0 44 1;
#X connect 90 0 63 1;
#X connect 91 0 75 1;
#X connect 92 0 88 0;
#X connect 93 0 89 0;
#X connect 94 0 90 0;
#X connect 95 0 91 0;
#X connect 96 0 26 0;
#X connect 97 0 26 0;
#X connect 98 0 26 0;
#X connect 99 0 26 0;
#X connect 100 0 15 0;
#X connect 102 0 103 0;
#X connect 103 0 104 0;
#X connect 104 0 204 0;
#X connect 104 0 205 0;
#X connect 106 0 133 0;
#X connect 107 0 110 1;
#X connect 108 0 114 0;
#X connect 109 0 122 0;
#X connect 110 0 108 0;
#X connect 111 0 112 0;
#X connect 113 0 204 0;
#X connect 115 0 114 1;
#X connect 117 0 115 0;
#X connect 121 0 110 0;
#X connect 122 0 121 0;
#X connect 122 1 107 0;
#X connect 122 2 120 0;
#X connect 123 0 136 0;
#X connect 126 0 135 0;
#X connect 128 0 132 0;
#X connect 131 0 135 0;
#X connect 132 0 10 0;
#X connect 133 0 100 0;
#X connect 134 0 9 1;
#X connect 135 0 134 0;
#X connect 136 0 138 0;
#X connect 138 0 139 0;
#X connect 139 0 137 0;
#X connect 139 0 143 0;
#X connect 141 0 52 0;
#X connect 142 0 14 1;
#X connect 146 0 154 0;
#X connect 147 0 161 0;
#X connect 148 0 163 0;
#X connect 150 0 151 0;
#X connect 151 0 152 0;
#X connect 152 0 153 0;
#X connect 153 0 149 1;
#X connect 154 0 173 0;
#X connect 155 0 154 1;
#X connect 155 0 174 0;
#X connect 156 0 154 1;
#X connect 159 0 148 0;
#X connect 164 0 168 0;
#X connect 165 0 164 0;
#X connect 167 0 14 0;
#X connect 167 0 181 0;
#X connect 170 0 146 0;
#X connect 171 0 180 0;
#X connect 172 0 178 0;
#X connect 178 0 155 0;
#X connect 179 0 171 0;
#X connect 182 0 184 0;
#X connect 182 0 146 1;
#X connect 183 0 186 0;
#X connect 186 0 188 0;
#X connect 187 0 186 1;
#X connect 190 0 191 0;
#X connect 193 0 199 0;
#X connect 199 0 170 0;
#X connect 199 0 210 0;
#X connect 201 0 80 0;
#X connect 201 2 81 0;
#X connect 201 4 194 0;
#X connect 201 5 195 0;
#X connect 201 8 157 0;
#X connect 201 9 158 0;
#X connect 202 0 207 0;
#X connect 204 0 105 0;
#X connect 204 0 127 0;
#X connect 205 0 116 0;
#X connect 208 0 209 0;
